<svg width="122.04" height="122.88" xmlns="http://www.w3.org/2000/svg">
 <style type="text/css">.st0{fill-rule:evenodd;clip-rule:evenodd;}</style>

 <g>
  <title>background</title>
  <rect fill="none" id="canvas_background" height="514" width="514" y="-1" x="-1"/>
 </g>
 <g>
  <title>Layer 1</title>
  <g stroke="null" id="svg_1">
   <path fill="#23c2fc" stroke="null" id="svg_2" d="m117.31,9.3l0,39.28l-39.28,0l-4.63,0l3.27,-3.28l11.45,-11.45c-0.75,-0.73 -1.54,-1.44 -2.36,-2.11c-1.08,-0.88 -2.22,-1.72 -3.38,-2.48l0,0c-6.02,-3.93 -13.21,-6.21 -20.94,-6.21l-0.01,0l0,-0.01c-10.59,0 -20.18,4.3 -27.12,11.24c-6.94,6.94 -11.24,16.53 -11.24,27.11l0.01,0l0,0.05l-0.01,0c0,10.59 4.3,20.19 11.24,27.12c6.94,6.94 16.53,11.24 27.11,11.24l0,-0.01l0.08,0l0,0.01c3.7,0 7.39,-0.54 10.93,-1.59l0,0c1.95,-0.58 3.87,-1.33 5.71,-2.22c9.39,-4.54 16.65,-12.8 19.87,-22.87l0.43,-1.33l23.61,0l-0.47,2.3l-0.01,0.06l0,0.01c-0.81,3.84 -2.01,7.62 -3.54,11.24l0,0.01c-1.5,3.55 -3.37,6.98 -5.52,10.19c-11.02,16.43 -29.78,27.26 -51.05,27.26l-0.02,0l0,-0.01c-16.96,0 -32.33,-6.88 -43.43,-17.99l0,-0.01c-11.12,-11.08 -17.99,-26.43 -18,-43.38l-0.01,0l0,-0.05l0.01,0c0,-16.96 6.88,-32.32 18,-43.43l0,0c11.1,-11.1 26.45,-17.97 43.4,-17.98l0,-0.01l0.06,0l0,0.01c8.71,0 17.01,1.83 24.51,5.1c1.21,0.53 2.43,1.1 3.6,1.71c5.48,2.83 10.47,6.46 14.83,10.74l9.61,-9.61l3.27,-3.27l0,4.62l0.02,0l0,0z" class="st0"/>
  </g>
 </g>
</svg>